<svg width="341" height="220" viewBox="0 0 341 220" fill="none" xmlns="http://www.w3.org/2000/svg">
<g filter="url(#filter0_d_633_2857)">
<path d="M14.4142 10.4407C43.712 -2.26238 76.4507 -3.41578 106.514 7.21118C130.749 15.7781 151.897 31.5253 167.487 52.3235C183.078 31.5263 204.225 15.7798 228.459 7.21313C254.116 -1.85637 281.723 -2.34671 307.476 5.60083C315.225 7.9923 318.695 16.6606 315.657 24.1799L311.395 34.7317C308.225 42.5751 299.205 46.1097 290.984 44.1125C274.613 40.135 257.396 40.9578 241.285 46.6526C220.312 54.0666 202.666 69.2262 191.677 89.2698C191.653 89.3126 191.599 89.3271 191.557 89.302C191.516 89.2775 191.462 89.2907 191.438 89.3313L191.197 89.7258L198.531 101.826C198.558 101.871 198.616 101.885 198.66 101.859C198.706 101.832 198.765 101.849 198.79 101.895C209.78 121.935 227.425 137.093 248.396 144.506C255.014 146.845 261.819 148.361 268.676 149.061C273.318 149.534 277.763 147.354 280.663 143.698L291.638 129.863C296.445 123.802 306.011 125.219 308.856 132.412L312.685 142.096C312.686 142.099 312.689 142.101 312.692 142.103H312.713C312.716 142.104 312.719 142.107 312.721 142.111L328.159 180.322C328.194 180.408 328.155 180.507 328.069 180.543C328.04 180.556 328.01 180.568 327.981 180.58C327.945 180.596 327.928 180.638 327.942 180.674C327.963 180.726 327.92 180.781 327.864 180.773L327.673 180.744C327.639 180.739 327.604 180.743 327.572 180.757C298.299 193.42 265.599 194.561 235.569 183.946C207.773 174.119 184.036 154.847 168.089 129.342C152.142 154.861 128.399 174.142 100.593 183.972C74.9358 193.041 47.3291 193.532 21.5763 185.584C13.8269 183.193 10.3564 174.524 13.3946 167.004L17.6573 156.453C20.8264 148.61 29.8472 145.074 38.0675 147.072C54.4387 151.049 71.6572 150.227 87.7677 144.532C108.739 137.119 126.382 121.962 137.372 101.922C137.398 101.875 137.457 101.86 137.503 101.887C137.547 101.913 137.604 101.899 137.631 101.855L144.378 90.72L143.535 89.3293C143.511 89.2888 143.458 89.2755 143.417 89.3C143.375 89.3253 143.32 89.3107 143.297 89.2678C132.307 69.2241 114.661 54.0646 93.6876 46.6506C87.0887 44.318 80.3041 42.8023 73.4679 42.0998C68.8227 41.6225 64.3727 43.8027 61.4708 47.4612L50.4786 61.3196C45.6623 67.391 36.0794 65.9718 33.2296 58.7649L29.3917 49.0598C29.3895 49.0545 29.3833 49.0515 29.378 49.0539C29.3728 49.0562 29.3666 49.0543 29.3644 49.0491L13.923 10.8313C13.889 10.7469 13.9282 10.6506 14.0118 10.6145C14.046 10.5998 14.0803 10.5853 14.1144 10.5706C14.1406 10.5592 14.1532 10.5288 14.1427 10.5022C14.1277 10.4644 14.1591 10.4243 14.1993 10.4299L14.34 10.4504C14.3648 10.454 14.3911 10.4507 14.4142 10.4407Z" fill="#46588A" fill-opacity="0.2" shape-rendering="crispEdges"/>
</g>
<defs>
<filter id="filter0_d_633_2857" x="0.000781059" y="0" width="340.471" height="219.484" filterUnits="userSpaceOnUse" color-interpolation-filters="sRGB">
<feFlood flood-opacity="0" result="BackgroundImageFix"/>
<feColorMatrix in="SourceAlpha" type="matrix" values="0 0 0 0 0 0 0 0 0 0 0 0 0 0 0 0 0 0 127 0" result="hardAlpha"/>
<feOffset dy="16"/>
<feGaussianBlur stdDeviation="6.15"/>
<feComposite in2="hardAlpha" operator="out"/>
<feColorMatrix type="matrix" values="0 0 0 0 0 0 0 0 0 0 0 0 0 0 0 0 0 0 0.44 0"/>
<feBlend mode="normal" in2="BackgroundImageFix" result="effect1_dropShadow_633_2857"/>
<feBlend mode="normal" in="SourceGraphic" in2="effect1_dropShadow_633_2857" result="shape"/>
</filter>
</defs>
</svg>
